<svg width="26" height="27" viewBox="0 0 26 27" fill="none" xmlns="http://www.w3.org/2000/svg">
<path d="M18.7773 1L18.7773 5.33333M7.22179 1L7.22179 5.33333" stroke="#2AF2FF" stroke-width="2" stroke-linecap="round"/>
<path fill-rule="evenodd" clip-rule="evenodd" d="M16.7776 2.44434H9.22201L9.22201 5.33327C9.22201 6.43784 8.32658 7.33327 7.22201 7.33327C6.11744 7.33327 5.22201 6.43784 5.22201 5.33327L5.22201 2.491C3.30816 2.58468 2.11636 2.86638 1.2692 3.71354C0 4.98274 0 7.0255 0 11.111V18.3332C0 22.4187 0 24.4615 1.2692 25.7307C2.53841 26.9999 4.58116 26.9999 8.66667 26.9999H17.3333C21.4188 26.9999 23.4616 26.9999 24.7308 25.7307C26 24.4615 26 22.4187 26 18.3332V11.111C26 7.0255 26 4.98274 24.7308 3.71354C23.8836 2.86632 22.6917 2.58463 20.7776 2.49098L20.7776 5.33327C20.7776 6.43784 19.8821 7.33327 18.7776 7.33327C17.673 7.33327 16.7776 6.43784 16.7776 5.33327L16.7776 2.44434ZM6.22243 13.9999C6.22243 13.4477 6.67015 12.9999 7.22243 12.9999L18.778 12.9999C19.3303 12.9999 19.778 13.4477 19.778 13.9999C19.778 14.5522 19.3303 14.9999 18.778 14.9999L7.22243 14.9999C6.67015 14.9999 6.22243 14.5522 6.22243 13.9999ZM7.22243 18.7777C6.67015 18.7777 6.22243 19.2255 6.22243 19.7777C6.22243 20.33 6.67015 20.7777 7.22243 20.7777H18.778C19.3303 20.7777 19.778 20.33 19.778 19.7777C19.778 19.2255 19.3303 18.7777 18.778 18.7777H7.22243Z" fill="#2AF2FF"/>
</svg>
