<svg width="56" height="56" viewBox="0 0 56 56" fill="none" xmlns="http://www.w3.org/2000/svg">
<path d="M28 56C43.464 56 56 43.464 56 28C56 12.536 43.464 0 28 0C12.536 0 0 12.536 0 28C0 43.464 12.536 56 28 56Z" fill="white"/>
<path fill-rule="evenodd" clip-rule="evenodd" d="M30.6074 16.801V16.801L30.6267 16.9935C30.79 18.627 30.8717 19.4438 31.4245 19.6728C31.9773 19.9018 32.6126 19.382 33.8832 18.3424L34.0327 18.2201C34.6984 17.6754 35.0313 17.4031 35.4161 17.4223C35.801 17.4415 36.1051 17.7456 36.7134 18.3538L38.0258 19.6663L38.0258 19.6663C38.634 20.2745 38.9382 20.5786 38.9574 20.9635C38.9765 21.3483 38.7042 21.6812 38.1595 22.347L38.0377 22.4958C36.9981 23.7664 36.4783 24.4017 36.7073 24.9545C36.9363 25.5073 37.7531 25.589 39.3866 25.7523L39.579 25.7716C40.4349 25.8572 40.8629 25.9 41.1215 26.1856C41.38 26.4713 41.38 26.9014 41.38 27.7616V29.6177C41.38 30.4779 41.38 30.908 41.1215 31.1937C40.8629 31.4794 40.4349 31.5222 39.579 31.6078H39.579L39.3867 31.627C37.7532 31.7903 36.9364 31.872 36.7075 32.4248C36.4785 32.9777 36.9983 33.6129 38.0378 34.8835L38.1602 35.0331C38.7049 35.6989 38.9773 36.0317 38.9581 36.4166C38.9389 36.8014 38.6348 37.1055 38.0265 37.7138L36.7141 39.0262C36.1058 39.6345 35.8017 39.9386 35.4169 39.9578C35.032 39.977 34.6992 39.7046 34.0334 39.1599L33.8833 39.0371C32.6127 37.9975 31.9774 37.4777 31.4246 37.7067C30.8718 37.9357 30.7901 38.7525 30.6267 40.386L30.6074 40.579V40.579C30.5218 41.4349 30.479 41.8629 30.1933 42.1215C29.9077 42.38 29.4776 42.38 28.6174 42.38H26.7613C25.9011 42.38 25.471 42.38 25.1853 42.1215C24.8996 41.8629 24.8568 41.4349 24.7712 40.579L24.752 40.3871C24.5887 38.7535 24.507 37.9367 23.9542 37.7078C23.4014 37.4788 22.7661 37.9986 21.4955 39.0381L21.3459 39.1605C20.6801 39.7053 20.3473 39.9776 19.9624 39.9584C19.5776 39.9392 19.2735 39.6351 18.6652 39.0269L18.6652 39.0268L17.3528 37.7144C16.7445 37.1062 16.4404 36.802 16.4212 36.4172C16.402 36.0324 16.6744 35.6995 17.2191 35.0337L17.342 34.8835C18.3815 33.6129 18.9013 32.9776 18.6724 32.4248C18.4434 31.872 17.6266 31.7903 15.9931 31.627L15.801 31.6078H15.801C14.9451 31.5222 14.5171 31.4794 14.2585 31.1937C14 30.908 14 30.4779 14 29.6177V27.7616C14 26.9014 14 26.4713 14.2585 26.1856C14.5171 25.9 14.9451 25.8572 15.801 25.7716L15.9932 25.7523C17.6267 25.589 18.4435 25.5073 18.6725 24.9545C18.9015 24.4017 18.3817 23.7664 17.3421 22.4958L17.2198 22.3463C16.6751 21.6806 16.4027 21.3477 16.4219 20.9629C16.4411 20.578 16.7452 20.2739 17.3535 19.6656L18.6659 18.3532C19.2742 17.745 19.5783 17.4408 19.9631 17.4216C20.348 17.4024 20.6809 17.6748 21.3466 18.2195L21.4955 18.3414C22.7661 19.3809 23.4014 19.9007 23.9542 19.6717C24.5071 19.4428 24.5887 18.626 24.7521 16.9925L24.7712 16.801C24.8568 15.9451 24.8996 15.5171 25.1853 15.2585C25.471 15 25.9011 15 26.7613 15H28.6174C29.4776 15 29.9077 15 30.1933 15.2585C30.479 15.5171 30.5218 15.9451 30.6074 16.801ZM27.6897 34.166C30.714 34.166 33.1657 31.7143 33.1657 28.69C33.1657 25.6657 30.714 23.214 27.6897 23.214C24.6654 23.214 22.2137 25.6657 22.2137 28.69C22.2137 31.7143 24.6654 34.166 27.6897 34.166Z" fill="#7248E7"/>
</svg>
