<svg width="56" height="56" viewBox="0 0 56 56" fill="none" xmlns="http://www.w3.org/2000/svg">
<path d="M28 56C43.464 56 56 43.464 56 28C56 12.536 43.464 0 28 0C12.536 0 0 12.536 0 28C0 43.464 12.536 56 28 56Z" fill="#7248E7"/>
<g clip-path="url(#clip0)">
<path d="M21.3311 20.4846L32.2453 17.5055L31.6673 16.3372C31.2892 15.5778 30.3668 15.2643 29.6074 15.6424L19.8369 20.4846H21.3311Z" fill="white"/>
<path d="M35.6335 17.5913C35.4982 17.5913 35.3629 17.6098 35.2276 17.6466L32.6636 18.3476L24.833 20.4843H33.7212H37.595L37.1153 18.7258C36.9309 18.0402 36.3098 17.5913 35.6335 17.5913Z" fill="white"/>
<path d="M39.197 21.5605H38.8465H38.37H37.8934H34.2564H20.8918H19.1394H17.6637H17.3901H16.4739C15.9881 21.5605 15.5546 21.785 15.2718 22.1385C15.1427 22.3015 15.0443 22.489 14.9889 22.695C14.9551 22.8241 14.9336 22.9594 14.9336 23.0978V23.2822V25.0346V40.2254C14.9336 41.074 15.6223 41.7626 16.4708 41.7626H39.1939C40.0425 41.7626 40.7311 41.074 40.7311 40.2254V35.9366H31.6093C30.1674 35.9366 28.996 34.7652 28.996 33.3233V31.9152V31.4387V30.9621V29.9045C28.996 29.1974 29.2788 28.5549 29.737 28.0845C30.1428 27.6664 30.687 27.3835 31.2957 27.3128C31.3972 27.3005 31.5017 27.2944 31.6062 27.2944H39.4522H39.9287H40.4052H40.7311V23.0978C40.7342 22.2492 40.0455 21.5605 39.197 21.5605Z" fill="white"/>
<path d="M41.8104 28.764C41.6567 28.6226 41.4753 28.515 41.2724 28.4443C41.1156 28.3921 40.9496 28.3613 40.7743 28.3613H40.7344H40.7036H40.2271H38.5085H31.6095C30.7609 28.3613 30.0723 29.05 30.0723 29.8985V30.664V31.1406V31.6171V33.3204C30.0723 34.1689 30.7609 34.8576 31.6095 34.8576H40.7344H40.7743C40.9496 34.8576 41.1156 34.8268 41.2724 34.7746C41.4753 34.7069 41.6567 34.5962 41.8104 34.4548C42.1179 34.175 42.3116 33.7692 42.3116 33.3204V29.8985C42.3116 29.4496 42.1179 29.0438 41.8104 28.764ZM34.8192 31.9153C34.8192 32.3396 34.4748 32.6839 34.0506 32.6839H33.5402C33.1159 32.6839 32.7716 32.3396 32.7716 31.9153V31.405C32.7716 31.159 32.8854 30.9407 33.0668 30.8024C33.199 30.7009 33.3619 30.6364 33.5402 30.6364H33.6693H34.0506C34.4748 30.6364 34.8192 30.9807 34.8192 31.405V31.9153Z" fill="white"/>
</g>
<defs>
<clipPath id="clip0">
<rect width="27.3778" height="27.3778" fill="white" transform="translate(14.9336 14.9336)"/>
</clipPath>
</defs>
</svg>
