<svg width="29" height="29" viewBox="0 0 29 29" fill="none" xmlns="http://www.w3.org/2000/svg">
<circle cx="8.70079" cy="10.6329" r="8.7" fill="#21435F"/>
<circle cx="20.3002" cy="19.3335" r="8.7" fill="#118C4B"/>
<path d="M23.3559 20.5957C23.2999 20.4059 23.2319 20.2408 23.1521 20.1007C23.0723 19.9604 22.958 19.8234 22.809 19.6896C22.6603 19.5559 22.5263 19.4479 22.4077 19.3661C22.2891 19.284 22.1261 19.1924 21.9188 19.0908C21.7118 18.9892 21.5479 18.914 21.427 18.8643C21.3062 18.8146 21.1311 18.7469 20.9026 18.6605C20.6996 18.5829 20.5486 18.5235 20.4493 18.4825C20.35 18.4414 20.2196 18.3832 20.0577 18.3077C19.8961 18.2322 19.7752 18.1653 19.6952 18.107C19.6154 18.0487 19.5301 17.9775 19.4394 17.8934C19.3487 17.8093 19.2852 17.7197 19.2485 17.6247C19.2118 17.5297 19.1934 17.4261 19.1934 17.3139C19.1934 17.0205 19.3229 16.7808 19.5818 16.5953C19.8408 16.4098 20.1752 16.3169 20.5854 16.3169C20.7665 16.3169 20.9513 16.3416 21.1388 16.3913C21.3264 16.4409 21.4871 16.4969 21.6211 16.5595C21.7551 16.6221 21.8812 16.6912 22 16.7667C22.1186 16.8422 22.2029 16.8994 22.2526 16.9384C22.3022 16.9772 22.3338 17.003 22.3465 17.0162C22.4027 17.0592 22.4607 17.0744 22.5213 17.0615C22.5859 17.0572 22.6358 17.0227 22.6702 16.9579L23.1947 16.0128C23.2464 15.9264 23.2357 15.8446 23.1623 15.7668C23.1364 15.741 23.104 15.7108 23.065 15.6761C23.0262 15.6417 22.9421 15.5791 22.8124 15.4884C22.6829 15.3977 22.546 15.3167 22.4016 15.2455C22.2569 15.1743 22.0692 15.102 21.8381 15.0288C21.6073 14.9553 21.3688 14.9057 21.1227 14.8798V13.7404C21.1227 13.6801 21.1032 13.6305 21.0647 13.5915C21.0259 13.5527 20.9763 13.5332 20.9157 13.5332H20.0416C19.9856 13.5332 19.9369 13.5536 19.8961 13.5946C19.8553 13.6357 19.8346 13.6842 19.8346 13.7402V14.9054C19.1571 15.0349 18.6068 15.324 18.1837 15.7729C17.7609 16.2219 17.5493 16.7438 17.5493 17.3395C17.5493 17.5163 17.5677 17.6848 17.6044 17.8442C17.6412 18.0038 17.6865 18.1474 17.7405 18.2748C17.7944 18.4022 17.8711 18.5274 17.9702 18.6503C18.0695 18.7732 18.1633 18.879 18.2518 18.9675C18.3402 19.0559 18.4556 19.1477 18.598 19.2425C18.7404 19.3375 18.8624 19.4141 18.9637 19.4724C19.0653 19.5305 19.2 19.5976 19.3682 19.6729C19.5365 19.7484 19.6693 19.8055 19.7664 19.8445C19.8634 19.8833 19.9961 19.9372 20.1645 20.0062C20.3976 20.0969 20.5702 20.1669 20.6824 20.2166C20.7947 20.2662 20.937 20.3352 21.1098 20.4238C21.2824 20.5122 21.4087 20.5932 21.4885 20.6664C21.5683 20.7399 21.6406 20.8304 21.7055 20.9383C21.7703 21.0462 21.8027 21.1605 21.8027 21.2814C21.8027 21.6224 21.6701 21.8854 21.4046 22.0709C21.1393 22.2566 20.8316 22.3493 20.4822 22.3493C20.3226 22.3493 20.163 22.3321 20.0033 22.2976C19.4424 22.1854 18.9179 21.9155 18.4302 21.4884L18.4173 21.4754C18.3785 21.4281 18.3266 21.4086 18.262 21.4174C18.1928 21.426 18.1432 21.4519 18.113 21.4952L17.4462 22.3692C17.3813 22.4556 17.3858 22.5441 17.4591 22.6345C17.4806 22.6604 17.5185 22.6994 17.5725 22.7511C17.6264 22.803 17.7269 22.8837 17.8736 22.9939C18.0203 23.1041 18.1799 23.2075 18.3527 23.3048C18.5252 23.4018 18.7442 23.4977 19.0098 23.5927C19.2753 23.6875 19.5503 23.7544 19.8351 23.7932V24.926C19.8351 24.9822 19.8555 25.0307 19.8965 25.0718C19.9376 25.1128 19.9861 25.1332 20.0421 25.1332H20.9162C20.9767 25.1332 21.0264 25.1137 21.0652 25.0749C21.1039 25.0362 21.1232 24.9865 21.1232 24.926V23.7932C21.8095 23.6809 22.3673 23.3864 22.7968 22.9096C23.2262 22.4327 23.4409 21.8641 23.4409 21.2038C23.4405 20.9884 23.4126 20.7857 23.3559 20.5957Z" fill="white"/>
<rect x="15.467" width="13.5333" height="0.966667" rx="0.483333" fill="#118C4B"/>
<rect x="28.0341" width="0.966667" height="10.6333" rx="0.483333" fill="#118C4B"/>
<rect x="13.5333" y="29" width="13.5333" height="0.966667" rx="0.483333" transform="rotate(180 13.5333 29)" fill="#118C4B"/>
<rect x="0.967529" y="29" width="0.966667" height="10.6333" rx="0.483333" transform="rotate(180 0.967529 29)" fill="#118C4B"/>
<path d="M5.30926 10.7939C4.14938 8.98965 4.93337 7.35722 5.47035 6.76654C5.30926 8.21639 5.95365 9.82734 6.92022 10.955C7.95123 12.6304 6.81282 13.9621 6.11474 14.4991C6.63026 12.6948 6.15872 11.5994 5.30926 10.7939Z" fill="#FFFBFC"/>
<path d="M8.02333 10.834C6.59952 8.57869 7.56191 6.53816 8.22108 5.7998C8.02333 7.61212 8.81435 9.62581 10.0009 11.0354C11.2665 13.1296 9.86902 14.7943 9.0121 15.4655C9.64491 13.2102 9.06607 11.8409 8.02333 10.834Z" fill="#FFFBFC"/>
<path d="M11.1097 10.7946C9.94979 8.99038 10.7338 7.35795 11.2708 6.76727C11.1097 8.21713 11.7541 9.82807 12.7206 10.9557C13.7516 12.6311 12.6132 13.9628 11.9152 14.4998C12.4307 12.6956 11.9591 11.6001 11.1097 10.7946Z" fill="#FFFBFC"/>
</svg>
