<svg width="26" height="30" viewBox="0 0 26 30" fill="none" xmlns="http://www.w3.org/2000/svg">
<path d="M1 10.3282C1 5.93083 1 3.73216 2.31802 2.36608C3.63604 1 5.75736 1 10 1H16C20.2426 1 22.364 1 23.682 2.36608C25 3.73216 25 5.93083 25 10.3282V20.943C25 25.1147 25 27.2006 23.7336 27.8385C22.4671 28.4765 20.8847 27.1878 17.7198 24.6105L16.7069 23.7856C14.9274 22.3364 14.0376 21.6118 13 21.6118C11.9624 21.6118 11.0726 22.3364 9.29307 23.7856L8.28019 24.6105C5.11532 27.1878 3.53288 28.4765 2.26644 27.8385C1 27.2006 1 25.1147 1 20.943V10.3282Z" stroke="white" stroke-width="2"/>
</svg>
