<svg width="18" height="17" viewBox="0 0 18 17" fill="none" xmlns="http://www.w3.org/2000/svg">
<path d="M7.27839 3.64133C8.00795 1.88044 8.37272 1 9 1C9.62728 1 9.99205 1.88044 10.7216 3.64133L10.7556 3.72333C11.1677 4.71814 11.3738 5.21555 11.7938 5.51788C12.2138 5.82021 12.7652 5.86802 13.8679 5.96363L14.0672 5.98092C15.8719 6.1374 16.7743 6.21564 16.9673 6.77145C17.1604 7.32727 16.4903 7.91754 15.1501 9.09807L14.7027 9.49207C14.0243 10.0897 13.6851 10.3885 13.527 10.7801C13.4975 10.8532 13.4729 10.928 13.4536 11.0042C13.3496 11.4124 13.449 11.8459 13.6476 12.7128L13.7095 12.9827C14.0746 14.576 14.2572 15.3726 13.9384 15.7162C13.8193 15.8446 13.6645 15.9371 13.4925 15.9825C13.0323 16.1041 12.3789 15.5886 11.0722 14.5577C10.2141 13.8807 9.78506 13.5422 9.29247 13.4661C9.09872 13.4361 8.90128 13.4361 8.70753 13.4661C8.21494 13.5422 7.78591 13.8807 6.92783 14.5577C5.62107 15.5886 4.96768 16.1041 4.50747 15.9825C4.3355 15.9371 4.1807 15.8446 4.06159 15.7162C3.74283 15.3726 3.92539 14.576 4.29052 12.9827L4.35236 12.7128C4.55103 11.8459 4.65037 11.4124 4.54644 11.0042C4.52705 10.928 4.50253 10.8532 4.47304 10.7801C4.31493 10.3885 3.9757 10.0897 3.29725 9.49207L2.84995 9.09807C1.50971 7.91754 0.839586 7.32727 1.03267 6.77145C1.22575 6.21564 2.12809 6.1374 3.93278 5.98092L4.13213 5.96363C5.23482 5.86802 5.78616 5.82021 6.20617 5.51788C6.62618 5.21555 6.83226 4.71814 7.24442 3.72333L7.27839 3.64133Z" stroke="white"/>
</svg>
